<svg width="58" height="57" viewBox="0 0 58 57" fill="none" xmlns="http://www.w3.org/2000/svg">
<path d="M28.458 28.5035C28.458 33.6773 32.6527 37.872 37.8237 37.872C39.4322 37.8742 41.014 37.4606 42.4157 36.6715C43.4232 36.1039 44.6663 36.839 44.6663 37.9941V48.126C44.6664 48.3594 44.6205 48.5904 44.5313 48.806C44.442 49.0216 44.3112 49.2175 44.1462 49.3825C43.9812 49.5475 43.7853 49.6784 43.5697 49.7676C43.3541 49.8569 43.123 49.9028 42.8897 49.9026H29.6614C28.5063 49.9026 27.7712 48.6596 28.3388 47.6549C29.2298 46.0755 29.641 44.2707 29.5223 42.4612C29.2328 37.7982 25.4355 34.0009 20.7697 33.7114C18.8767 33.595 17.0943 34.0378 15.5788 34.8949C14.5741 35.4625 13.3311 34.7274 13.3311 33.5723V23.4376C13.3311 22.2825 14.5741 21.5502 15.5817 22.115C16.9828 22.9054 18.565 23.319 20.1737 23.3155C25.5462 23.3155 29.8629 18.7945 29.5223 13.3482C29.4354 11.95 29.0306 10.5901 28.3388 9.37203C27.7655 8.35883 28.4836 7.10156 29.65 7.10156H42.8897C43.123 7.10145 43.3541 7.14733 43.5697 7.23657C43.7853 7.32582 43.9812 7.45668 44.1462 7.62168C44.3112 7.78668 44.442 7.98258 44.5313 8.19818C44.6205 8.41378 44.6664 8.64486 44.6663 8.8782V19.0215C44.6663 20.1851 43.4119 20.906 42.3958 20.3327C41.1774 19.6418 39.8177 19.237 38.4197 19.1492C32.9791 18.8143 28.458 23.131 28.458 28.5035Z" fill="white"/>
<path d="M20.1737 20.7918C24.0987 20.7918 27.2518 17.4883 27.0049 13.5093C26.7921 10.1008 24.0193 7.328 20.6107 7.11514C16.6346 6.86823 13.3311 10.0213 13.3311 13.9464C13.3311 17.7267 16.3962 20.7918 20.1737 20.7918Z" fill="#FFA300"/>
<path d="M37.8265 35.3465C41.7516 35.3465 44.9047 32.043 44.6578 28.064C44.4449 24.6555 41.6721 21.8827 38.2636 21.6698C34.2874 21.4229 30.9839 24.576 30.9839 28.5011C30.9811 32.2814 34.0462 35.3465 37.8265 35.3465Z" fill="#FFA300"/>
<path d="M20.1737 49.8993C24.0987 49.8993 27.2518 46.5957 27.0049 42.6168C26.7921 39.2082 24.0193 36.4354 20.6107 36.2226C16.6346 35.9756 13.3311 39.1288 13.3311 43.0538C13.3311 46.837 16.3962 49.8993 20.1737 49.8993Z" fill="#FFA300"/>
</svg>
